Patient4_TMGait_0pt7_01_right_32_EMG.mot
version=1
nRows=30
nColumns=33
inDegrees=no
endheader
time	1LAddLong	2LGlutMax	3LGlutMed	4LIliopsoas	5LSemiMemb	6LBicFemLong	7LRecFem	8LVastMed	9LVastLat	10LGasMed	11LTibAnt	12lTibPost	13LPeroneusLong	14LSol	15LExtDigLong	16LFlexDigLong	17RAddLong	18RGlutMax	19RGlutMed	20RIliopsoas	21RSemiMemb	22RBicFemLong	23RRecFem	24RVastMed	25RVastLat	26RGasMed	27RTibAnt	28RTibPost	29RPeroneusLong	30RSol	31RExtDigLong	32RFlexDigLong
36.37	0.001221	0.01358	-0.12787	0.025024	0.055847	0.26093	0.003204	-0.003662	0.21149	1.0701	-0.097656	-0.032806	0.89386	-0.65735	-0.086975	-0.015259	0.04364	-0.20538	-0.11139	-0.028687	0.28091	-0.46066	0.45303	0.092316	0.071259	-0.004883	-0.85785	-0.011292	0.21347	0.010223	-0.003662	0.00824
36.371	-0.004578	-0.010834	-0.04837	0.030518	0.053253	0.23529	0.033875	-0.002899	0.20996	2.2345	-0.06134	-0.083313	1.1935	-1.1368	0.064392	0.041199	0.023346	-0.16419	-0.040894	-0.074463	0.27786	-0.57556	0.38391	0.2449	0.094757	-0.001221	-0.68939	-0.014496	0.1471	-0.072632	-0.002136	0.010376
36.372	-0.007477	-0.037842	-0.031738	0.018921	0.044708	0.36179	0.062714	0.005646	0.2005	1.5417	-0.035095	-0.001221	0.21652	-1.3889	0.029144	0.087128	0.007629	-0.20355	-0.33646	-0.066986	0.27344	-0.74677	0.40924	0.58609	0.15274	-0.003815	-0.14328	-0.004578	0.021973	-0.085907	-0.00061	0.005646
36.373	-0.014801	0.010223	0.003052	0.015869	0.041809	0.47516	-0.006104	0.017853	0.16159	0.23102	0.085754	0.077667	-0.22324	-1.2875	0.10864	0.15411	-0.009308	-0.1358	-0.18356	-0.059204	0.27084	-0.63263	0.38071	0.66483	0.15411	-0.002899	0.13779	-0.013123	-0.024109	-0.025635	0.002136	0.001984
36.374	-0.006256	-0.028534	0.029907	0.015717	0.050964	0.12512	-0.061188	0.007935	0.12543	-0.36331	0.13092	0.04715	0.18478	-0.98282	0.22079	-0.58136	-0.00061	-0.13138	-0.1329	-0.051422	0.25864	-0.52231	0.17777	0.45654	0.078278	-0.006714	0.10407	-0.01358	-0.068359	-0.025787	-0.000458	-0.007019
36.375	-0.009003	-0.060883	0.062866	-0.000763	0.051727	-0.48798	0.030212	-0.011902	0.066833	-0.34851	0.069885	0.071259	-0.96603	-0.034943	0.16968	0.11139	-0.010071	-0.10666	0.035248	0.088196	0.23102	-0.45532	-0.085602	0.17166	0.03067	-0.004883	0.15503	-0.015717	-0.10544	-0.027008	0.002899	0.00351
36.376	-0.00412	-0.046387	-0.093842	0.002594	0.04364	-0.52048	0.040283	-0.011597	0.081787	-0.25848	0.026093	0.070648	-1.1137	0.8551	0.008392	0.11337	-0.015259	-0.17136	-0.041809	0.12558	0.20737	-0.3598	-0.19424	0.002594	0.008392	-0.01358	0.11917	-0.015869	-0.13138	0.045624	0.002441	0.00473
36.377	-0.001678	-0.031128	-0.16449	0.00412	0.038605	-0.50797	0.00351	-0.013123	0.11353	-0.24597	0.006714	0.042267	-0.31311	1.0086	-0.23254	0.017853	0.042267	-0.112	-0.68726	0.097961	0.20172	-0.26566	-0.42526	-0.072632	-0.010986	-0.003204	0.38025	-0.016022	-0.044861	0.05249	0.001526	0.006561
36.378	-0.010071	0.044861	-0.24719	0.012054	0.019379	-0.2063	0.022583	-0.005646	0.11154	-0.89523	0.000458	0.038605	0.54718	0.70404	-0.23666	0.039063	0.06958	-0.10925	-0.47775	-0.062714	0.20309	-0.20737	-0.58807	-0.16586	-0.031891	0.002136	0.18585	-0.014191	-0.017242	0.085449	0.001526	0.011902
36.379	-0.01297	0.10513	-0.29892	0.025177	0.034943	-0.10452	0.058441	-0.010834	0.070801	-0.75684	0.067749	0.023346	0.54962	0.76553	-0.06546	0.046844	0.063782	-0.13519	-0.29098	-0.057678	0.18127	-0.17487	-0.90332	-0.27893	-0.083923	-0.001831	-0.17777	-0.014343	0.088501	0.049286	0.00061	0.017395
36.38	-0.021057	0.1796	-0.21896	0.035858	0.010681	-0.18646	0.094757	-0.013275	0.051727	-0.42877	0.014954	-0.030365	0.0737	0.79163	0.007324	0.052948	0.018005	-0.098419	-0.26032	0.034332	0.16495	-0.16357	-1.0451	-0.39154	-0.099487	-0.002289	-0.34866	-0.014191	0.16632	-0.029602	0.002136	0.013123
36.381	-0.014191	0.18692	0.033417	0.031738	-0.011139	0.40253	0.008087	0.006866	0.026855	-0.36102	-0.1059	-0.015564	-1.1461	0.84946	0.12024	0.045013	-0.018616	-0.039063	-0.12009	0.11673	0.13916	-0.11047	-0.98724	-0.3569	-0.091248	-0.004578	0.040588	-0.013885	0.012054	-0.042114	0.000458	0.010376
36.382	-0.021667	0.19714	0.087585	-0.004272	-0.001984	0.49484	-0.032959	0.007782	-0.019989	-0.49484	-0.025482	-0.000916	-0.49423	0.52551	0.48248	0.001831	-0.055084	0.019684	-0.016785	0.14557	0.11765	-0.077972	-0.61691	-0.2507	-0.072327	-0.007019	0.18356	-0.012817	-0.18921	0.002594	-0.001678	0.013123
36.383	-0.015717	0.20691	-0.08667	-0.023651	-0.025177	0.55634	-0.059967	0.013123	-0.029907	-0.31418	0.10681	-0.018158	0.23178	0.32593	-0.4184	0.010986	0.003052	0.022125	-0.27481	-0.048523	0.12238	-0.023041	-0.41596	-0.28137	-0.084991	0.001068	0.34943	-0.015106	-0.24551	-0.055084	-0.00351	0.011749
36.384	-0.01236	0.22583	-0.10056	-0.038757	-0.011139	0.78354	-0.023956	0.011597	-0.014038	-0.25787	0.025787	-0.021362	0.41672	0.62042	-0.3862	0.009155	0.031586	-0.03891	-0.092316	-0.16586	0.12405	-0.008392	-0.006714	-0.20676	-0.076141	-0.00061	0.72128	-0.015411	-0.3447	-0.22949	-0.002136	0.011292
36.385	-0.012512	0.29907	-0.096283	-0.038147	-0.005341	0.57114	-0.00885	0.011902	0.016174	-0.25726	0.16678	-0.014496	0.37094	0.67749	-0.44968	0.00351	0.028687	-0.072174	-0.29938	-0.20798	0.13412	0.041351	0.42664	-0.17761	-0.036011	0.001373	0.67291	-0.012207	-0.39902	-0.20706	-0.001068	0.004883
36.386	0.07309	0.29846	0.083008	-0.029144	0.021362	-0.34332	-0.02655	0.007477	0.058746	-0.31891	0.19867	-0.013885	-0.23193	0.57587	0.17761	0.007782	0.076904	-0.070496	0.33264	-0.20462	0.14542	0.079651	0.57617	-0.2092	-0.01297	-0.002594	0.27771	-0.016479	-0.26749	-0.085144	-0.002441	0.009766
36.387	0.091858	0.28275	0.014648	-0.034027	0.058289	-1.492	-0.045929	0.001831	0.11215	-0.18646	0.040436	-0.01297	0.20584	0.50064	0.48218	0.023499	0.084839	-0.085754	0.15121	-0.15503	0.16953	0.14771	0.6189	-0.18097	0.032501	-0.002899	0.22095	-0.020294	0.019836	-0.030975	0.001068	0.014038
36.388	-0.021973	0.30304	-0.007782	-0.044708	0.036621	-0.80292	-0.019989	0.002594	0.049133	0.27603	-0.059052	-0.007782	0.26947	0.30182	0.42999	0.006561	0.16007	-0.032654	-0.28809	-0.041962	0.1622	0.12314	0.54596	-0.1294	0.034332	-0.00885	0.6076	-0.020447	0.30136	-0.02243	-0.00061	0.007324
36.389	-0.015564	0.27863	-0.01297	-0.029297	0.037689	-0.50705	0.034485	0.013123	-0.034485	0.63263	-0.13016	-0.005646	-0.5365	0.13763	-0.36728	0.007629	0.22659	0.008545	-0.34286	-0.014496	0.1445	0.11948	0.67581	-0.1265	0.001221	-0.017395	0.54031	-0.019226	0.24384	0.014954	-0.000916	-0.006561
36.39	-0.01709	0.22644	0.13825	-0.010834	0.018921	-0.21225	0.074615	0.018005	-0.086975	0.45166	-0.018921	0.000305	0.51071	-0.15671	-0.40863	-0.001984	0.30121	-0.003357	-0.2243	-0.005341	0.12299	0.11353	0.737	-0.085297	-0.060883	-0.01709	-0.1442	-0.022736	0.1471	0.024872	0.000305	-0.006256
36.391	-0.019989	0.21362	0.17593	-0.016174	-0.018921	0.23758	0.062256	0.018921	-0.097656	-0.075684	-0.10025	-0.015869	0.64377	-0.016479	-0.38177	-0.023041	0.3212	0.013123	-0.21805	0.072632	0.095673	0.10025	0.75348	-0.10086	-0.020447	-0.018158	-0.24811	-0.014801	0.18005	-0.010681	-0.001221	-0.005646
36.392	-0.012665	0.22247	0.38605	-0.003662	-0.026855	0.34119	-0.032043	0.023804	-0.11154	0.11612	-0.070648	-0.008087	-0.29923	0.091858	-0.22018	-0.028687	0.27924	0.027161	-0.090179	0.098877	0.076599	0.12054	0.59006	-0.051117	-0.018463	-0.006561	-0.32028	-0.017853	0.013123	-0.03418	-0.004425	-0.000916
36.393	0.002747	0.1622	0.23514	-0.006256	-0.00061	0.27557	-0.048676	0.033112	-0.094604	-0.34393	-0.05249	-0.014954	-0.33905	0.071869	0.084839	0.004883	0.12299	0.045471	-0.12024	0.031281	0.06958	0.14969	0.50339	-0.052948	-0.002289	-0.005341	-0.54565	-0.015259	-0.13138	0.016327	-0.002747	-0.000458
36.394	0.000458	0.1091	0.10895	0.005493	0.010223	0.49744	0.01709	0.033875	-0.030365	-0.45242	-0.010376	-0.019379	-0.63446	0.054016	0.15152	0.038757	-0.07431	0.033722	-0.14023	-0.018921	0.049591	0.14374	0.37186	-0.1973	-0.053558	0.017548	-0.49362	-0.018158	0.024567	0.03418	0.003052	-0.001526
36.395	0.003967	0.054169	0.055084	0.006866	0.002899	0.62958	0.027924	0.02594	0.11139	-0.42099	-0.035095	-0.016327	-0.22217	0.096283	-0.052948	-0.002441	-0.18173	0.040741	-0.16342	0.027924	0.066528	0.18326	0.24338	-0.16739	-0.081635	0.013733	-0.067596	-0.018616	0.22522	0.074463	0	-0.003204
36.396	0.015717	-0.0177	0.016632	0.014038	0.005646	0.61356	-0.077972	0.015564	0.11139	0.090027	-0.055084	-0.023346	0.17273	0.055847	-0.071716	-0.033417	-0.21393	0.10788	-0.029144	-0.022736	0.085907	0.16632	0.20218	-0.085144	-0.053406	0.006866	0.25375	-0.016785	0.12589	-0.066223	0	0
36.397	0.019379	-0.036469	-0.029297	-0.005646	0.04303	-0.46799	-0.20798	0.055695	0.20096	0.30045	-0.045776	-0.008545	-0.33127	-0.40497	-0.074158	-0.066681	-0.27573	0.095673	0.17166	-0.072632	0.092316	0.21729	0.41504	-0.037994	-0.063629	-0.00061	0.40207	-0.001373	-0.005493	-0.17273	0.00061	-0.014191
36.398	0.020905	-0.037537	-0.018768	-0.003052	0.076294	-0.45258	-0.17593	0.067139	0.27435	-0.053406	-0.042267	0.01358	-0.052185	-0.7048	0.059662	-0.0383	-0.26718	0.085449	0.24048	-0.053406	0.06546	0.23499	0.60944	-0.096283	-0.10056	-0.010071	0.41489	-0.011444	0.020294	-0.1387	0.000458	-0.006104
36.399	0.009766	-0.044556	0.03952	-0.002747	0.081329	-0.46661	-0.1561	-0.013428	0.39047	-0.10025	-0.065765	0.030975	0.57983	-0.55328	0.12283	0.006409	-0.24612	0.11002	-0.049133	-0.039368	-0.006104	0.21683	0.47592	-0.087891	-0.12054	-0.019989	0.1239	-0.008698	0.076447	-0.20233	-0.003357	-0.005493
